<?xml version="1.0" ?><svg xmlns="http://www.w3.org/2000/svg" width="68.234489mm" height="63.868187mm" viewBox="0 0 68.234489 63.868187">
    <path d="m -2561.7913,-411.27344 c 0.1586,0.66019 5.6109,15.57696 5.6109,15.57696 l 24.5847,0.83862 6.6616,-18.80654 c 0,0 10.6468,20.3232 12.2527,26.22924 1.606,5.90605 -1.5663,14.27441 -8.7037,21.26888 -7.1376,6.99448 -12.6889,11.36601 -17.7446,11.7764 -5.0558,0.4104 -11.7571,-5.38861 -17.3878,-7.4227 -5.6307,-2.0341 -21.3926,-12.61502 -19.41,-18.77086 1.9826,-6.15584 8.8822,-26.40767 14.1362,-30.69 z" fill="#db4128" paint-order="fill markers stroke" transform="translate(132.27829,44.51884) translate(2445.6716,371.62186)"/>
    <path d="m -2566.1078,-384.8869 c -3.334,0.0107 -6.3632,1.49126 -8.1953,3.19774 -2.0218,1.88302 -0.823,5.96664 0.9167,7.82846 1.7397,1.86185 19.3244,13.47721 19.3244,13.47721 l 10.5792,-11.9326 c 0,0 -17.8437,-12.18679 -21.5816,-12.52533 -0.3505,-0.0317 -0.6985,-0.0466 -1.0434,-0.0455 z m 43.1132,1.54047 c -0.4187,0.004 -0.8173,0.0471 -1.1876,0.13436 -3.9495,0.93094 -17.232,11.04377 -17.232,11.04377 l 11.4019,11.82719 c 0,0 17.8436,-15.88954 17.3969,-17.77256 -0.4049,-1.70645 -6.332,-5.27205 -10.3792,-5.23276 z" fill="#f46a25" paint-order="fill markers stroke" transform="translate(132.27829,44.51884) translate(2445.6716,371.62186)"/>
    <path d="m -2554.4146,-361.61072 c 3.8555,-3.11012 12.5068,-9.73235 12.5068,-9.73235 l 12.7889,10.66326 c 0,0 -6.5825,6.79148 -12.6479,6.13561 -6.0653,-0.65588 -12.6478,-7.06652 -12.6478,-7.06652 z" fill="#f49e25" paint-order="fill markers stroke" transform="translate(132.27829,44.51884) translate(2445.6716,371.62186)"/>
    <path d="m -2548.7682,-354.14045 c -7.3884,-3.25709 -18.9258,-10.51855 -23.1877,-14.74492 -6.492,-6.43767 -7.5067,-11.64893 -4.0274,-20.68319 1.1563,-3.00256 3.5125,-8.38249 5.2358,-11.95544 5.5971,-11.60391 8.5333,-14.79286 11.3668,-12.34528 0.7728,0.66738 1.4302,2.04994 1.5167,3.18881 0.084,1.10582 0.7876,4.49542 1.5635,7.53243 0.9283,4.08771 0.4039,5.50523 4.4894,5.57254 l 7.707,0.12697 8.2938,0.13664 c 3.0682,0.0771 2.4255,0.53468 2.8208,-2.39486 1.1081,-8.21498 4.5867,-16.43395 6.9554,-16.43395 3.3031,0 9.0601,9.96199 13.1039,20.78803 3.4906,9.34526 4.0415,15.65393 2.1233,19.64406 -1.9593,4.07559 -5.7814,7.55806 -14.1268,14.36736 -7.4684,6.09368 -12.3598,12.2593 -23.8345,7.2008 z m 10.2887,-3.46651 c 2.0749,-0.95475 6.2936,-3.84876 5.8125,-4.17854 -0.1451,-0.0996 -2.3109,-1.70006 -4.8127,-3.55672 -2.502,-1.85658 -4.8684,-3.37564 -5.2586,-3.37564 -0.9438,0 -8.7563,5.81339 -8.7206,6.48908 0.059,1.12304 7.5307,5.43436 10.104,5.53 0.459,0.0166 1.753,-0.39163 2.8754,-0.90818 z m -11.5704,-9.60223 c 2.1893,-2.02854 3.9692,-3.90306 3.9554,-4.16559 -0.04,-0.75148 -13.8728,-10.27203 -16.4646,-11.33161 -2.9401,-1.20209 -5.1327,-1.32829 -7.8655,-0.0107 -5.0242,2.4225 -2.1978,7.72756 1.1001,10.21349 2.8584,2.15469 13.3053,8.9835 14.7593,8.98359 0.294,7e-5 2.3258,-1.6597 4.5153,-3.68825 z m 24.7438,-0.75991 c 4.5024,-4.07071 9.4293,-9.49526 9.3697,-10.31625 -0.066,-0.90358 -1.0386,-1.9172 -2.6184,-2.72706 -1.7415,-0.89282 -5.9253,-0.42246 -8.5599,0.96235 -3.0588,1.60768 -11.9237,8.21262 -11.7017,8.71842 0.3022,0.68789 8.2478,7.10379 8.837,7.13567 0.2596,0.0147 2.3627,-1.68389 4.6733,-3.77313 z m -13.9975,-8.43265 c 6.8882,-5.94315 13.0343,-9.2064 17.3391,-9.2064 1.1712,0 3.2436,0.55314 4.6051,1.22919 2.4556,1.21918 2.4754,1.2185 2.4068,-0.0819 -0.2337,-4.43482 -7.9777,-25.12745 -9.6028,-25.65982 -0.3481,-0.11395 -1.5287,3.10209 -2.6234,7.14694 -1.0948,4.04486 -2.3447,7.87617 -2.7772,8.51401 -0.8989,1.32451 -2.5742,1.43354 -17.426,1.13404 -6.3738,-0.12853 -9.7874,-0.45003 -10.2415,-0.96458 -0.3746,-0.42447 -1.551,-3.49383 -2.6141,-6.82079 -1.0629,-3.32697 -2.0706,-6.18009 -2.2393,-6.34027 -0.7439,-0.70684 -7.2536,15.25341 -8.2086,20.12672 -0.3383,1.72477 -0.2714,1.8054 0.9427,1.13684 1.7981,-0.99023 5.5357,-0.90161 8.2178,0.19484 2.3623,0.96576 13.4821,7.9843 16.7281,10.55838 1.054,0.83588 2.0727,1.51974 2.2636,1.51974 0.191,0 1.6442,-1.11909 3.2297,-2.48687 z" transform="translate(132.27829,44.51884) translate(2445.6716,371.62186)"/>
</svg>